<svg width="179" height="100" viewBox="0 0 179 100" fill="none" xmlns="http://www.w3.org/2000/svg">
<g clip-path="url(#clip0_107_22981)" filter="url(#filter0_d_107_22981)">
<path d="M38.4449 65.125C38.1402 65.125 37.8429 65.1211 37.5406 65.1143C36.9144 65.1061 36.2896 65.0516 35.6714 64.9512C35.095 64.8519 34.5366 64.6673 34.0147 64.4033C33.4975 64.1415 33.0258 63.7983 32.6177 63.3867C32.2036 62.98 31.8589 62.5082 31.5972 61.9902C31.3326 61.4688 31.1494 60.9099 31.0542 60.333C30.9513 59.7131 30.8957 59.0863 30.8877 58.458C30.8813 58.2471 30.873 57.5449 30.873 57.5449V34.4443C30.873 34.4443 30.8819 33.7529 30.8877 33.5498C30.8954 32.9225 30.9507 32.2967 31.0533 31.6777C31.1487 31.0993 31.332 30.5387 31.5967 30.0156C31.8575 29.4979 32.2003 29.0259 32.6119 28.6177C33.023 28.2056 33.4962 27.8606 34.0142 27.5952C34.535 27.3321 35.0923 27.1487 35.6675 27.0513C36.2877 26.9498 36.9146 26.895 37.543 26.8872L38.4454 26.875H141.214L142.127 26.8877C142.75 26.8951 143.371 26.9494 143.985 27.0503C144.566 27.149 145.13 27.3336 145.656 27.5981C146.694 28.133 147.539 28.9792 148.071 30.0181C148.332 30.5376 148.512 31.0935 148.607 31.667C148.71 32.291 148.768 32.9217 148.78 33.5542C148.783 33.8374 148.783 34.1416 148.783 34.4443C148.791 34.8193 148.791 35.1763 148.791 35.5361V56.4648C148.791 56.8281 148.791 57.1826 148.783 57.54C148.783 57.8652 148.783 58.1631 148.779 58.4697C148.768 59.0909 148.711 59.7104 148.608 60.3232C148.515 60.9043 148.333 61.4675 148.068 61.9932C147.805 62.5056 147.462 62.9733 147.053 63.3789C146.644 63.7927 146.172 64.1379 145.653 64.4014C145.128 64.6674 144.566 64.8527 143.985 64.9512C143.367 65.0522 142.742 65.1067 142.116 65.1143C141.823 65.1211 141.517 65.125 141.219 65.125L140.135 65.127L38.4449 65.125Z" fill="white"/>
<path d="M54.9967 45.8894C55.0078 45.0215 55.2384 44.1705 55.6669 43.4155C56.0953 42.6606 56.7078 42.0264 57.4472 41.5717C56.9775 40.9008 56.3578 40.3487 55.6373 39.9592C54.9168 39.5697 54.1155 39.3536 53.2969 39.328C51.5506 39.1447 49.8577 40.3729 48.9679 40.3729C48.0608 40.3729 46.6907 39.3462 45.2154 39.3765C44.2611 39.4074 43.3311 39.6849 42.5159 40.182C41.7008 40.6791 41.0283 41.3789 40.564 42.2132C38.5529 45.6952 40.053 50.8126 41.9795 53.6272C42.9434 55.0055 44.0699 56.545 45.5439 56.4904C46.9863 56.4305 47.525 55.5706 49.2661 55.5706C50.991 55.5706 51.4965 56.4904 53.0004 56.4557C54.5481 56.4305 55.5233 55.0713 56.4534 53.68C57.1459 52.698 57.6788 51.6126 58.0324 50.4641C57.1332 50.0838 56.3658 49.4472 55.826 48.6337C55.2861 47.8202 54.9977 46.8658 54.9967 45.8894Z" fill="black"/>
<path d="M52.1561 37.4768C53 36.4637 53.4158 35.1616 53.3151 33.8469C52.0258 33.9823 50.8349 34.5985 49.9795 35.5727C49.5614 36.0487 49.2411 36.6023 49.037 37.2021C48.8329 37.8019 48.7491 38.436 48.7902 39.0682C49.4351 39.0749 50.0731 38.9351 50.6561 38.6594C51.2391 38.3838 51.752 37.9794 52.1561 37.4768Z" fill="black"/>
<path d="M72.3018 53.1397H67.5684L66.4316 56.4961H64.4268L68.9102 44.0781H70.9932L75.4766 56.4961H73.4375L72.3018 53.1397ZM68.0586 51.5908H71.8106L69.961 46.1436H69.9092L68.0586 51.5908Z" fill="black"/>
<path d="M85.1592 51.9697C85.1592 54.7832 83.6533 56.5908 81.3809 56.5908C80.8052 56.6209 80.2327 56.4883 79.7289 56.2082C79.2251 55.928 78.8104 55.5117 78.5323 55.0068H78.4893V59.4912H76.6309V47.4423H78.4297V48.9482H78.4639C78.7548 48.4457 79.1766 48.0316 79.6842 47.7497C80.1918 47.4679 80.7664 47.3289 81.3467 47.3476C83.6446 47.3476 85.1592 49.164 85.1592 51.9697ZM83.249 51.9697C83.249 50.1367 82.3018 48.9316 80.8565 48.9316C79.4365 48.9316 78.4815 50.1621 78.4815 51.9697C78.4815 53.7939 79.4365 55.0156 80.8565 55.0156C82.3018 55.0156 83.249 53.8193 83.249 51.9697H83.249Z" fill="black"/>
<path d="M95.1245 51.9697C95.1245 54.7832 93.6182 56.5908 91.3457 56.5908C90.7701 56.6209 90.1976 56.4883 89.6938 56.2082C89.19 55.928 88.7753 55.5117 88.4971 55.0068H88.4541V59.4912H86.5957V47.4423H88.3945V48.9482H88.4287C88.7197 48.4457 89.1414 48.0316 89.649 47.7497C90.1567 47.4679 90.7312 47.3289 91.3115 47.3476C93.6094 47.3476 95.1245 49.164 95.1245 51.9697ZM93.2139 51.9697C93.2139 50.1367 92.2666 48.9316 90.8213 48.9316C89.4014 48.9316 88.4463 50.1621 88.4463 51.9697C88.4463 53.7939 89.4014 55.0156 90.8213 55.0156C92.2666 55.0156 93.2139 53.8193 93.2139 51.9697Z" fill="black"/>
<path d="M101.71 53.0362C101.847 54.2676 103.044 55.0762 104.678 55.0762C106.245 55.0762 107.372 54.2676 107.372 53.1572C107.372 52.1934 106.692 51.6162 105.083 51.2207L103.473 50.833C101.193 50.2822 100.134 49.2158 100.134 47.4854C100.134 45.3428 102.002 43.8711 104.652 43.8711C107.277 43.8711 109.076 45.3428 109.136 47.4854H107.26C107.148 46.2461 106.124 45.4981 104.627 45.4981C103.129 45.4981 102.105 46.2549 102.105 47.3565C102.105 48.2344 102.759 48.751 104.36 49.1465L105.728 49.4824C108.276 50.0849 109.334 51.1084 109.334 52.9248C109.334 55.248 107.484 56.7031 104.541 56.7031C101.787 56.7031 99.9272 55.2822 99.8071 53.0361L101.71 53.0362Z" fill="black"/>
<path d="M113.346 45.2998V47.4424H115.068V48.9141H113.346V53.9053C113.346 54.6807 113.691 55.042 114.448 55.042C114.652 55.0384 114.856 55.0241 115.059 54.999V56.4619C114.719 56.5255 114.373 56.5543 114.027 56.5478C112.194 56.5478 111.479 55.8593 111.479 54.1035V48.9141H110.163V47.4424H111.479V45.2998H113.346Z" fill="black"/>
<path d="M116.064 51.9697C116.064 49.1211 117.742 47.3311 120.358 47.3311C122.983 47.3311 124.653 49.1211 124.653 51.9697C124.653 54.8262 122.992 56.6084 120.358 56.6084C117.725 56.6084 116.064 54.8262 116.064 51.9697ZM122.759 51.9697C122.759 50.0156 121.864 48.8623 120.358 48.8623C118.852 48.8623 117.957 50.0244 117.957 51.9697C117.957 53.9316 118.852 55.0762 120.358 55.0762C121.864 55.0762 122.759 53.9316 122.759 51.9697H122.759Z" fill="black"/>
<path d="M126.185 47.4425H127.958V48.9835H128.001C128.12 48.5022 128.402 48.0769 128.799 47.779C129.196 47.4811 129.683 47.3288 130.178 47.3478C130.392 47.347 130.606 47.3703 130.815 47.4171V49.1554C130.545 49.0728 130.263 49.0348 129.98 49.0431C129.71 49.0321 129.441 49.0797 129.191 49.1826C128.941 49.2855 128.717 49.4412 128.533 49.6391C128.349 49.837 128.21 50.0724 128.125 50.3291C128.041 50.5857 128.013 50.8576 128.043 51.1261V56.4962H126.185L126.185 47.4425Z" fill="black"/>
<path d="M139.383 53.8369C139.133 55.4805 137.533 56.6084 135.485 56.6084C132.851 56.6084 131.216 54.8437 131.216 52.0127C131.216 49.1729 132.86 47.3311 135.407 47.3311C137.912 47.3311 139.487 49.0518 139.487 51.7969V52.4336H133.092V52.5459C133.063 52.8791 133.104 53.2148 133.215 53.5306C133.325 53.8464 133.501 54.1352 133.731 54.3778C133.962 54.6203 134.241 54.8111 134.551 54.9374C134.86 55.0637 135.194 55.1226 135.528 55.1103C135.967 55.1515 136.408 55.0498 136.784 54.8203C137.161 54.5909 137.454 54.246 137.619 53.8369L139.383 53.8369ZM133.101 51.1348H137.627C137.644 50.8352 137.599 50.5354 137.494 50.2541C137.389 49.9729 137.228 49.7164 137.019 49.5006C136.811 49.2849 136.56 49.1145 136.282 49.0003C136.005 48.8861 135.707 48.8305 135.407 48.8369C135.104 48.8351 134.804 48.8933 134.524 49.008C134.244 49.1227 133.989 49.2918 133.775 49.5054C133.561 49.7191 133.391 49.973 133.275 50.2527C133.159 50.5323 133.1 50.8321 133.101 51.1348V51.1348Z" fill="black"/>
<path d="M67.8262 34.7306C68.2158 34.7027 68.6067 34.7615 68.9709 34.903C69.335 35.0444 69.6632 35.2649 69.9317 35.5485C70.2003 35.8321 70.4026 36.1718 70.524 36.5431C70.6454 36.9144 70.6829 37.308 70.6338 37.6955C70.6338 39.6017 69.6035 40.6975 67.8262 40.6975H65.6709V34.7306H67.8262ZM66.5976 39.8536H67.7226C68.0011 39.8703 68.2797 39.8246 68.5382 39.72C68.7967 39.6154 69.0287 39.4545 69.2172 39.2489C69.4057 39.0433 69.546 38.7983 69.6278 38.5317C69.7097 38.2651 69.7311 37.9836 69.6904 37.7076C69.7281 37.4328 69.7046 37.153 69.6215 36.8884C69.5383 36.6237 69.3977 36.3807 69.2096 36.1768C69.0216 35.9729 68.7907 35.813 68.5337 35.7088C68.2766 35.6046 67.9996 35.5585 67.7226 35.5739H66.5976V39.8536Z" fill="black"/>
<path d="M71.6807 38.444C71.6524 38.1481 71.6862 37.8496 71.7801 37.5675C71.8739 37.2854 72.0257 37.0261 72.2256 36.8061C72.4256 36.5861 72.6693 36.4103 72.9411 36.2901C73.213 36.1698 73.507 36.1077 73.8042 36.1077C74.1015 36.1077 74.3955 36.1698 74.6673 36.2901C74.9392 36.4103 75.1829 36.5861 75.3828 36.8061C75.5828 37.0261 75.7345 37.2854 75.8284 37.5675C75.9222 37.8496 75.9561 38.1481 75.9278 38.444C75.9566 38.7403 75.9232 39.0392 75.8296 39.3218C75.736 39.6043 75.5843 39.8641 75.3843 40.0845C75.1843 40.3049 74.9404 40.4811 74.6683 40.6016C74.3962 40.7221 74.1019 40.7844 73.8042 40.7844C73.5066 40.7844 73.2123 40.7221 72.9402 40.6016C72.668 40.4811 72.4241 40.3049 72.2241 40.0845C72.0242 39.8641 71.8725 39.6043 71.7789 39.3218C71.6853 39.0392 71.6519 38.7403 71.6807 38.444ZM75.0137 38.444C75.0137 37.468 74.5752 36.8972 73.8057 36.8972C73.0332 36.8972 72.5987 37.468 72.5987 38.4441C72.5987 39.4279 73.0333 39.9943 73.8057 39.9943C74.5752 39.9943 75.0137 39.424 75.0137 38.444H75.0137Z" fill="black"/>
<path d="M81.5732 40.6975H80.6514L79.7207 37.3811H79.6504L78.7236 40.6975H77.8105L76.5693 36.1946H77.4707L78.2773 39.6306H78.3438L79.2695 36.1946H80.1221L81.0479 39.6306H81.1182L81.9209 36.1946H82.8096L81.5732 40.6975Z" fill="black"/>
<path d="M83.8535 36.1946H84.709V36.91H84.7754C84.888 36.653 85.0781 36.4377 85.3189 36.2939C85.5598 36.15 85.8395 36.085 86.1191 36.1077C86.3382 36.0912 86.5582 36.1243 86.7628 36.2044C86.9674 36.2845 87.1514 36.4096 87.3011 36.5704C87.4508 36.7313 87.5623 36.9237 87.6275 37.1335C87.6927 37.3434 87.7099 37.5652 87.6777 37.7825V40.6975H86.7891V38.0057C86.7891 37.282 86.4746 36.9222 85.8174 36.9222C85.6686 36.9152 85.5201 36.9406 85.3821 36.9964C85.244 37.0522 85.1197 37.1372 85.0175 37.2456C84.9154 37.354 84.8379 37.4832 84.7904 37.6243C84.7429 37.7655 84.7264 37.9152 84.7422 38.0633V40.6976H83.8535L83.8535 36.1946Z" fill="black"/>
<path d="M89.0938 34.4368H89.9824V40.6975H89.0938V34.4368Z" fill="black"/>
<path d="M91.2178 38.4441C91.1895 38.1482 91.2234 37.8496 91.3172 37.5675C91.4111 37.2854 91.5629 37.0261 91.7628 36.8061C91.9628 36.5861 92.2065 36.4104 92.4784 36.2901C92.7503 36.1698 93.0443 36.1077 93.3416 36.1077C93.6389 36.1077 93.9329 36.1698 94.2047 36.2901C94.4766 36.4104 94.7203 36.5861 94.9203 36.8061C95.1203 37.0261 95.272 37.2854 95.3659 37.5675C95.4598 37.8496 95.4936 38.1482 95.4653 38.4441C95.4942 38.7404 95.4607 39.0393 95.3671 39.3219C95.2734 39.6044 95.1217 39.8642 94.9217 40.0846C94.7217 40.305 94.4778 40.4811 94.2057 40.6017C93.9335 40.7222 93.6392 40.7845 93.3416 40.7845C93.0439 40.7845 92.7496 40.7222 92.4775 40.6017C92.2053 40.4811 91.9614 40.305 91.7614 40.0846C91.5614 39.8642 91.4097 39.6044 91.3161 39.3219C91.2225 39.0393 91.189 38.7404 91.2178 38.4441ZM94.5508 38.4441C94.5508 37.4681 94.1123 36.8973 93.3428 36.8973C92.5703 36.8973 92.1358 37.4681 92.1358 38.4441C92.1358 39.428 92.5704 39.9944 93.3428 39.9944C94.1123 39.9944 94.5508 39.4241 94.5508 38.4441H94.5508Z" fill="black"/>
<path d="M96.4009 39.4241C96.4009 38.6135 97.0044 38.1462 98.0757 38.0798L99.2954 38.0095V37.6208C99.2954 37.1453 98.981 36.8767 98.3735 36.8767C97.8774 36.8767 97.5337 37.0588 97.4351 37.3772H96.5747C96.6655 36.6038 97.3931 36.1077 98.4146 36.1077C99.5435 36.1077 100.18 36.6697 100.18 37.6208V40.6975H99.3247V40.0647H99.2544C99.1117 40.2917 98.9113 40.4767 98.6737 40.6009C98.436 40.7252 98.1697 40.7841 97.9019 40.7717C97.7128 40.7914 97.5218 40.7712 97.341 40.7125C97.1602 40.6538 96.9938 40.5579 96.8524 40.4309C96.711 40.3039 96.5977 40.1487 96.52 39.9753C96.4422 39.8019 96.4016 39.6141 96.4009 39.4241ZM99.2954 39.0393V38.6628L98.1958 38.7331C97.5757 38.7746 97.2944 38.9856 97.2944 39.3826C97.2944 39.7878 97.646 40.0237 98.1294 40.0237C98.2711 40.038 98.4142 40.0237 98.5502 39.9816C98.6862 39.9395 98.8123 39.8705 98.9211 39.7787C99.0299 39.6868 99.1191 39.574 99.1834 39.447C99.2477 39.32 99.2858 39.1813 99.2954 39.0393Z" fill="black"/>
<path d="M101.348 38.4441C101.348 37.0213 102.08 36.1199 103.217 36.1199C103.499 36.1069 103.778 36.1743 104.023 36.3142C104.267 36.4541 104.467 36.6607 104.598 36.9099H104.665V34.4368H105.553V40.6975H104.702V39.9861H104.631C104.49 40.2336 104.283 40.4376 104.034 40.5761C103.785 40.7146 103.502 40.7822 103.217 40.7717C102.072 40.7718 101.348 39.8704 101.348 38.4441ZM102.266 38.4441C102.266 39.3992 102.716 39.9739 103.469 39.9739C104.218 39.9739 104.681 39.3909 104.681 38.448C104.681 37.5095 104.213 36.9182 103.469 36.9182C102.721 36.9182 102.266 37.4968 102.266 38.4441H102.266Z" fill="black"/>
<path d="M109.23 38.444C109.202 38.1481 109.236 37.8496 109.329 37.5675C109.423 37.2854 109.575 37.0261 109.775 36.8061C109.975 36.5861 110.219 36.4103 110.49 36.2901C110.762 36.1698 111.056 36.1077 111.354 36.1077C111.651 36.1077 111.945 36.1698 112.217 36.2901C112.489 36.4103 112.732 36.5861 112.932 36.8061C113.132 37.0261 113.284 37.2854 113.378 37.5675C113.472 37.8496 113.505 38.1481 113.477 38.444C113.506 38.7403 113.472 39.0392 113.379 39.3218C113.285 39.6043 113.134 39.8641 112.934 40.0845C112.734 40.3049 112.49 40.4811 112.218 40.6016C111.946 40.7221 111.651 40.7844 111.354 40.7844C111.056 40.7844 110.762 40.7221 110.489 40.6016C110.217 40.4811 109.973 40.3049 109.773 40.0845C109.573 39.8641 109.422 39.6043 109.328 39.3218C109.235 39.0392 109.201 38.7403 109.23 38.444ZM112.563 38.444C112.563 37.468 112.125 36.8972 111.355 36.8972C110.583 36.8972 110.148 37.468 110.148 38.4441C110.148 39.4279 110.583 39.9943 111.355 39.9943C112.125 39.9943 112.563 39.424 112.563 38.444Z" fill="black"/>
<path d="M114.669 36.1946H115.525V36.91H115.591C115.704 36.653 115.894 36.4377 116.135 36.2939C116.376 36.15 116.655 36.085 116.935 36.1077C117.154 36.0912 117.374 36.1243 117.579 36.2044C117.783 36.2845 117.967 36.4096 118.117 36.5704C118.267 36.7313 118.378 36.9237 118.443 37.1335C118.509 37.3434 118.526 37.5652 118.494 37.7825V40.6975H117.605V38.0057C117.605 37.282 117.291 36.9222 116.633 36.9222C116.485 36.9152 116.336 36.9406 116.198 36.9964C116.06 37.0522 115.936 37.1372 115.833 37.2456C115.731 37.354 115.654 37.4832 115.606 37.6243C115.559 37.7655 115.542 37.9152 115.558 38.0633V40.6976H114.669V36.1946Z" fill="black"/>
<path d="M123.515 35.0735V36.2151H124.491V36.9636H123.515V39.2791C123.515 39.7507 123.709 39.9573 124.152 39.9573C124.265 39.9569 124.378 39.9501 124.491 39.9368V40.677C124.331 40.7055 124.169 40.7207 124.007 40.7224C123.019 40.7224 122.625 40.3747 122.625 39.5066V36.9636H121.911V36.215H122.625V35.0735H123.515Z" fill="black"/>
<path d="M125.705 34.4368H126.585V36.9182H126.656C126.774 36.6589 126.969 36.4423 127.215 36.298C127.461 36.1536 127.745 36.0885 128.029 36.1116C128.247 36.0997 128.465 36.1361 128.667 36.2181C128.869 36.3002 129.051 36.4259 129.199 36.5862C129.347 36.7465 129.458 36.9376 129.524 37.1457C129.59 37.3539 129.609 37.5739 129.58 37.7903V40.6975H128.69V38.0095C128.69 37.2903 128.355 36.926 127.727 36.926C127.574 36.9135 127.421 36.9345 127.277 36.9875C127.133 37.0406 127.003 37.1244 126.895 37.2332C126.787 37.3419 126.704 37.4729 126.652 37.6171C126.6 37.7612 126.58 37.915 126.593 38.0676V40.6975H125.705L125.705 34.4368Z" fill="black"/>
<path d="M134.761 39.4818C134.641 39.8933 134.379 40.2493 134.022 40.4874C133.666 40.7256 133.236 40.8307 132.81 40.7845C132.513 40.7923 132.219 40.7355 131.946 40.618C131.674 40.5004 131.43 40.325 131.232 40.1039C131.034 39.8827 130.887 39.6212 130.8 39.3374C130.713 39.0535 130.689 38.7543 130.73 38.4603C130.691 38.1654 130.715 37.8655 130.801 37.5808C130.888 37.2961 131.034 37.0334 131.231 36.8103C131.428 36.5872 131.671 36.409 131.942 36.2878C132.214 36.1666 132.509 36.1052 132.806 36.1077C134.059 36.1077 134.815 36.9637 134.815 38.3777V38.6878H131.635V38.7376C131.621 38.9029 131.642 39.0692 131.696 39.226C131.75 39.3827 131.837 39.5264 131.95 39.6479C132.062 39.7693 132.2 39.8658 132.352 39.9312C132.504 39.9966 132.669 40.0295 132.835 40.0276C133.047 40.0532 133.262 40.0149 133.453 39.9177C133.644 39.8205 133.802 39.6687 133.906 39.4817L134.761 39.4818ZM131.635 38.0306H133.91C133.921 37.8795 133.9 37.7277 133.849 37.5849C133.798 37.4422 133.718 37.3117 133.614 37.2019C133.509 37.092 133.383 37.0052 133.243 36.9471C133.103 36.8889 132.953 36.8606 132.801 36.8641C132.648 36.8622 132.495 36.891 132.353 36.949C132.21 37.0069 132.081 37.0928 131.972 37.2015C131.864 37.3102 131.778 37.4396 131.72 37.582C131.662 37.7244 131.633 37.8769 131.635 38.0306H131.635Z" fill="black"/>
</g>
<defs>
<filter id="filter0_d_107_22981" x="0" y="0" width="179.664" height="100" filterUnits="userSpaceOnUse" color-interpolation-filters="sRGB">
<feFlood flood-opacity="0" result="BackgroundImageFix"/>
<feColorMatrix in="SourceAlpha" type="matrix" values="0 0 0 0 0 0 0 0 0 0 0 0 0 0 0 0 0 0 127 0" result="hardAlpha"/>
<feOffset dy="4"/>
<feGaussianBlur stdDeviation="15"/>
<feComposite in2="hardAlpha" operator="out"/>
<feColorMatrix type="matrix" values="0 0 0 0 0 0 0 0 0 0 0 0 0 0 0 0 0 0 0.1 0"/>
<feBlend mode="normal" in2="BackgroundImageFix" result="effect1_dropShadow_107_22981"/>
<feBlend mode="normal" in="SourceGraphic" in2="effect1_dropShadow_107_22981" result="shape"/>
</filter>
<clipPath id="clip0_107_22981">
<rect width="119.664" height="40" fill="white" transform="translate(30 26)"/>
</clipPath>
</defs>
</svg>
