<svg width="195" height="100" viewBox="0 0 195 100" fill="none" xmlns="http://www.w3.org/2000/svg">
<g filter="url(#filter0_d_107_22980)">
<path fill-rule="evenodd" clip-rule="evenodd" d="M159.998 66H35.0018C32.2451 66 30 63.7456 30 61V31C30 28.2444 32.2451 26 35.0018 26H159.998C162.752 26 165 28.2444 165 31V61C165 63.7456 162.752 66 159.998 66Z" fill="white"/>
<path d="M101.118 39.232C100.217 39.232 99.4569 38.9153 98.8559 38.2918C98.2598 37.6858 97.927 36.8504 97.9419 35.9975C97.9419 35.0873 98.2499 34.3167 98.8559 33.7058C99.4544 33.0823 100.214 32.7656 101.116 32.7656C102.007 32.7656 102.767 33.0823 103.378 33.7058C103.984 34.3367 104.292 35.1073 104.292 35.9975C104.282 36.9103 103.974 37.6808 103.378 38.2893C102.78 38.9177 102.02 39.232 101.118 39.232ZM74.2939 39.232C73.4122 39.232 72.6473 38.9202 72.0214 38.3043C71.4005 37.6908 71.0851 36.9153 71.0851 36C71.0851 35.0848 71.4005 34.3093 72.0214 33.6958C72.6349 33.0798 73.3998 32.7681 74.2939 32.7681C74.731 32.7681 75.1556 32.8554 75.5629 33.0325C75.9628 33.2045 76.2881 33.4389 76.529 33.7257L76.5886 33.798L75.9156 34.4614L75.8461 34.3791C75.4661 33.9252 74.9569 33.7033 74.2839 33.7033C73.6829 33.7033 73.1589 33.9177 72.7268 34.3417C72.2921 34.7681 72.0711 35.3267 72.0711 36.0025C72.0711 36.6783 72.2921 37.2369 72.7268 37.6634C73.1589 38.0873 73.6829 38.3018 74.2839 38.3018C74.9247 38.3018 75.4636 38.0873 75.8833 37.6634C76.1317 37.414 76.2856 37.0649 76.3403 36.6235H74.1821V35.6908H77.2666L77.279 35.7756C77.3014 35.9327 77.3237 36.0948 77.3237 36.2444C77.3237 37.1048 77.0655 37.8005 76.5539 38.3143C75.9727 38.9227 75.2128 39.232 74.2939 39.232ZM109.96 39.0998H109.008L106.095 34.419L106.12 35.2619V39.0973H105.169V32.9003H106.254L106.284 32.9477L109.023 37.3566L108.999 36.5162V32.9003H109.96V39.0998ZM93.9708 39.0998H93.0072V33.833H91.3358V32.9003H95.6397V33.833H93.9683V39.0998H93.9708ZM90.551 39.0998H89.5898V32.9003H90.551V39.0998ZM85.1493 39.0998H84.1882V33.833H82.5168V32.9003H86.8207V33.833H85.1493V39.0998ZM81.9083 39.0898H78.2228V32.9003H81.9083V33.833H79.1864V35.5337H81.6426V36.4564H79.1864V38.1571H81.9083V39.0898ZM99.5612 37.6509C99.9908 38.0823 100.512 38.2993 101.118 38.2993C101.742 38.2993 102.251 38.0873 102.676 37.6509C103.098 37.227 103.311 36.6709 103.311 36C103.311 35.3292 103.098 34.7706 102.678 34.3492C102.248 33.9177 101.724 33.7008 101.121 33.7008C100.497 33.7008 99.9883 33.9128 99.5662 34.3492C99.144 34.7731 98.9304 35.3292 98.9304 36C98.9304 36.6709 99.1415 37.2295 99.5612 37.6509Z" fill="black"/>
<path fill-rule="evenodd" clip-rule="evenodd" d="M97.8526 47.7557C95.5056 47.7557 93.6032 49.5437 93.6032 52.01C93.6032 54.4539 95.518 56.2644 97.8526 56.2644C100.2 56.2644 102.102 54.4639 102.102 52.01C102.102 49.5437 100.2 47.7557 97.8526 47.7557ZM97.8526 54.5786C96.5686 54.5786 95.4634 53.5113 95.4634 52.0001C95.4634 50.4664 96.5711 49.4215 97.8526 49.4215C99.1366 49.4215 100.242 50.4664 100.242 52.0001C100.244 53.5212 99.1366 54.5786 97.8526 54.5786ZM88.5815 47.7557C86.2346 47.7557 84.3322 49.5437 84.3322 52.01C84.3322 54.4539 86.247 56.2644 88.5815 56.2644C90.9285 56.2644 92.8309 54.4639 92.8309 52.01C92.8309 49.5437 90.926 47.7557 88.5815 47.7557ZM88.5815 54.5786C87.2975 54.5786 86.1924 53.5113 86.1924 52.0001C86.1924 50.4664 87.3 49.4215 88.5815 49.4215C89.8655 49.4215 90.9707 50.4664 90.9707 52.0001C90.9707 53.5212 89.8655 54.5786 88.5815 54.5786ZM77.5496 49.0549V50.8554H81.8536C81.722 51.8654 81.3892 52.611 80.8801 53.1222C80.2492 53.7557 79.2757 54.4439 77.5596 54.4439C74.9146 54.4439 72.8458 52.2993 72.8458 49.6434C72.8458 46.9876 74.9146 44.8429 77.5596 44.8429C78.9876 44.8429 80.0282 45.409 80.8006 46.1322L82.0722 44.8554C80.9993 43.823 79.5712 43.0325 77.5695 43.0325C73.9411 43.0325 70.8962 46.0001 70.8962 49.6335C70.8962 53.2769 73.9386 56.2345 77.5695 56.2345C79.529 56.2345 80.9993 55.5911 82.1616 54.3791C83.3462 53.1896 83.7212 51.5113 83.7212 50.1572C83.7212 49.7357 83.6889 49.3567 83.6219 49.035H77.5472C77.5496 49.0325 77.5496 49.0549 77.5496 49.0549ZM122.673 50.4564C122.318 49.5013 121.245 47.7457 119.045 47.7457C116.864 47.7457 115.051 49.4689 115.051 52.0001C115.051 54.3891 116.844 56.2544 119.256 56.2544C121.193 56.2544 122.32 55.0649 122.785 54.3666L121.347 53.3991C120.87 54.1098 120.207 54.5761 119.266 54.5761C118.314 54.5761 117.649 54.1422 117.207 53.2868L122.872 50.9302C122.872 50.9327 122.673 50.4564 122.673 50.4564ZM116.896 51.8779C116.852 50.2345 118.168 49.3991 119.109 49.3991C119.852 49.3991 120.47 49.7656 120.681 50.2993L116.896 51.8779ZM112.294 56.0001H114.155V43.5013H112.294V56.0001ZM109.24 48.7008H109.173C108.753 48.1996 107.956 47.7457 106.937 47.7457C104.824 47.7457 102.877 49.6135 102.877 52.0125C102.877 54.4015 104.814 56.2469 106.937 56.2469C107.943 56.2469 108.753 55.7906 109.173 55.2794H109.24V55.8903C109.24 57.5138 108.375 58.3891 106.982 58.3891C105.842 58.3891 105.134 57.5661 104.846 56.8779L103.229 57.5562C103.694 58.6784 104.933 60.0674 106.98 60.0674C109.16 60.0674 111.008 58.7781 111.008 55.6335V48.0001H109.25V48.7008C109.252 48.7008 109.24 48.7008 109.24 48.7008ZM107.104 54.5786C105.82 54.5786 104.747 53.5013 104.747 52.0125C104.747 50.5113 105.82 49.424 107.104 49.424C108.375 49.424 109.361 50.5237 109.361 52.0125C109.374 53.5013 108.378 54.5786 107.104 54.5786ZM131.383 43.5013H126.935V56.0001H128.795V51.2669H131.385C133.444 51.2669 135.468 49.7681 135.468 47.3891C135.468 45.01 133.452 43.5013 131.383 43.5013ZM131.437 49.5212H128.792V45.232H131.437C132.831 45.232 133.618 46.3866 133.618 47.3766C133.618 48.3567 132.821 49.5212 131.437 49.5212ZM142.924 47.7332C141.573 47.7332 140.18 48.3342 139.603 49.6434L141.252 50.3317C141.608 49.6434 142.258 49.409 142.946 49.409C143.91 49.409 144.883 49.9876 144.906 51.02V51.1522C144.573 50.9626 143.843 50.6734 142.969 50.6734C141.188 50.6734 139.382 51.6509 139.382 53.4838C139.382 55.1621 140.843 56.2395 142.469 56.2395C143.719 56.2395 144.406 55.6734 144.836 55.0175H144.903V55.9851H146.696V51.1971C146.696 48.9676 145.047 47.7332 142.924 47.7332ZM142.69 54.5786C142.082 54.5786 141.23 54.2794 141.23 53.5113C141.23 52.5437 142.293 52.1771 143.199 52.1771C144.019 52.1771 144.407 52.3542 144.893 52.5986C144.759 53.7207 143.815 54.5686 142.69 54.5786ZM153.238 48.0001L151.102 53.4215H151.035L148.822 48.0001H146.82L150.141 55.5786L148.249 59.7906H150.186L155.294 48.0001H153.238ZM136.494 56.0001H138.354V43.5013H136.494V56.0001Z" fill="black"/>
<path fill-rule="evenodd" clip-rule="evenodd" d="M40.3911 33.5336C40.103 33.8454 39.9366 34.3217 39.9366 34.9451V57.0573C39.9366 57.6808 40.103 58.1571 40.4011 58.4563L40.4781 58.5237L52.8163 46.1346V45.8578L40.4681 33.4663L40.3911 33.5336Z" fill="url(#paint0_linear_107_22980)"/>
<path fill-rule="evenodd" clip-rule="evenodd" d="M56.9215 50.2768L52.8062 46.1446V45.8553L56.9215 41.7231L57.0109 41.778L61.8786 44.5561C63.2719 45.3441 63.2719 46.6458 61.8786 47.4438L57.0109 50.2219L56.9215 50.2768Z" fill="url(#paint1_linear_107_22980)"/>
<path fill-rule="evenodd" clip-rule="evenodd" d="M57.0109 50.2219L52.8062 46L40.3911 58.4663C40.8455 58.9551 41.608 59.01 42.4598 58.5337L57.0109 50.2219Z" fill="url(#paint2_linear_107_22980)"/>
<path fill-rule="evenodd" clip-rule="evenodd" d="M57.0109 41.7779L42.4598 33.4787C41.608 32.9899 40.8431 33.0572 40.3911 33.546L52.8062 45.9999L57.0109 41.7779Z" fill="url(#paint3_linear_107_22980)"/>
<path opacity="0.2" fill-rule="evenodd" clip-rule="evenodd" d="M56.9215 50.1323L42.4697 58.3767C41.6626 58.843 40.9424 58.8106 40.4779 58.3867L40.4009 58.464L40.4779 58.5313C40.9424 58.9527 41.6626 58.9877 42.4697 58.5213L57.0208 50.2221L56.9215 50.1323Z" fill="black"/>
<path opacity="0.12" fill-rule="evenodd" clip-rule="evenodd" d="M61.8787 47.2993L56.9091 50.1322L56.9985 50.2219L61.8663 47.4439C62.5641 47.0449 62.9069 46.5212 62.9069 46C62.8646 46.4788 62.5095 46.9327 61.8787 47.2993Z" fill="black"/>
<path opacity="0.25" fill-rule="evenodd" clip-rule="evenodd" d="M42.4599 33.6235L61.8787 44.7008C62.5095 45.0575 62.8646 45.5238 62.9193 46.0001C62.9193 45.4789 62.5766 44.9552 61.8787 44.5562L42.4599 33.4789C41.0667 32.6784 39.9366 33.3467 39.9366 34.9452V35.0899C39.9366 33.4889 41.0667 32.833 42.4599 33.6235Z" fill="white"/>
</g>
<defs>
<filter id="filter0_d_107_22980" x="0" y="0" width="195" height="100" filterUnits="userSpaceOnUse" color-interpolation-filters="sRGB">
<feFlood flood-opacity="0" result="BackgroundImageFix"/>
<feColorMatrix in="SourceAlpha" type="matrix" values="0 0 0 0 0 0 0 0 0 0 0 0 0 0 0 0 0 0 127 0" result="hardAlpha"/>
<feOffset dy="4"/>
<feGaussianBlur stdDeviation="15"/>
<feComposite in2="hardAlpha" operator="out"/>
<feColorMatrix type="matrix" values="0 0 0 0 0 0 0 0 0 0 0 0 0 0 0 0 0 0 0.1 0"/>
<feBlend mode="normal" in2="BackgroundImageFix" result="effect1_dropShadow_107_22980"/>
<feBlend mode="normal" in="SourceGraphic" in2="effect1_dropShadow_107_22980" result="shape"/>
</filter>
<linearGradient id="paint0_linear_107_22980" x1="51.7095" y1="34.7065" x2="31.9351" y2="39.9538" gradientUnits="userSpaceOnUse">
<stop stop-color="#00A0FF"/>
<stop offset="0.00657" stop-color="#00A1FF"/>
<stop offset="0.2601" stop-color="#00BEFF"/>
<stop offset="0.5122" stop-color="#00D2FF"/>
<stop offset="0.7604" stop-color="#00DFFF"/>
<stop offset="1" stop-color="#00E3FF"/>
</linearGradient>
<linearGradient id="paint1_linear_107_22980" x1="63.6956" y1="46" x2="39.5978" y2="46" gradientUnits="userSpaceOnUse">
<stop stop-color="#FFE000"/>
<stop offset="0.4087" stop-color="#FFBD00"/>
<stop offset="0.7754" stop-color="#FFA500"/>
<stop offset="1" stop-color="#FF9C00"/>
</linearGradient>
<linearGradient id="paint2_linear_107_22980" x1="54.7246" y1="48.2973" x2="38.7618" y2="75.0538" gradientUnits="userSpaceOnUse">
<stop stop-color="#FF3A44"/>
<stop offset="1" stop-color="#C31162"/>
</linearGradient>
<linearGradient id="paint3_linear_107_22980" x1="37.2648" y1="26.1787" x2="44.3864" y2="38.1286" gradientUnits="userSpaceOnUse">
<stop stop-color="#32A071"/>
<stop offset="0.0685" stop-color="#2DA771"/>
<stop offset="0.4762" stop-color="#15CF74"/>
<stop offset="0.8009" stop-color="#06E775"/>
<stop offset="1" stop-color="#00F076"/>
</linearGradient>
</defs>
</svg>
