<svg width="156" height="220" viewBox="0 0 156 220" fill="none" xmlns="http://www.w3.org/2000/svg">
<path d="M78 0C35.3312 0 0.65625 34.6758 0.65625 77.3438C0.65625 91.7812 4.6532 105.832 12.2582 117.95L72.757 216.956C73.7891 218.631 75.3359 219.663 77.1411 219.921C79.5894 220.307 82.2977 219.276 83.7153 216.827L144.387 116.918C151.605 105.059 155.344 91.2661 155.344 77.3438C155.344 34.6758 120.669 0 78 0ZM78 116.016C56.3446 116.016 39.3281 98.4844 39.3281 77.3438C39.3281 56.0738 56.73 38.6719 78 38.6719C99.27 38.6719 116.672 56.0738 116.672 77.3438C116.672 98.3555 99.9136 116.016 78 116.016Z" fill="#056839"/>
<path d="M78 0V38.6719C99.27 38.6719 116.672 56.0738 116.672 77.3437C116.672 98.3555 99.9136 116.016 78 116.016V219.996C80.1996 220.047 82.4614 218.993 83.7148 216.827L144.387 116.918C151.605 105.059 155.344 91.2661 155.344 77.3437C155.344 34.6758 120.669 0 78 0Z" fill="#EFF2EA"/>
</svg>
